{
  "accessors": [
    {
      "bufferView": 2,
      "componentType": 5126,
      "count": 10938,
      "max": [
        3.860713005065918,
        8.110828399658203,
        6.318036079406738
      ],
      "min": [
        -3.860713005065918,
        -10.276372909545898,
        -0.0024270000867545605
      ],
      "type": "VEC3"
    },
    {
      "bufferView": 2,
      "byteOffset": 131256,
      "componentType": 5126,
      "count": 10938,
      "max": [
        1.0,
        1.0,
        1.0
      ],
      "min": [
        -1.0,
        -1.0,
        -1.0
      ],
      "type": "VEC3"
    },
    {
      "bufferView": 3,
      "componentType": 5126,
      "count": 10938,
      "max": [
        1.0,
        1.0,
        1.0,
        1.0
      ],
      "min": [
        -1.0,
        -1.0,
        -1.0,
        -1.0
      ],
      "type": "VEC4"
    },
    {
      "bufferView": 1,
      "componentType": 5126,
      "count": 10938,
      "max": [
        0.9954550266265869,
        0.9969559907913208
      ],
      "min": [
        0.0033919999841600657,
        0.004141999874264002
      ],
      "type": "VEC2"
    },
    {
      "bufferView": 0,
      "componentType": 5125,
      "count": 33045,
      "type": "SCALAR"
    },
    {
      "bufferView": 2,
      "byteOffset": 262512,
      "componentType": 5126,
      "count": 340,
      "max": [
        3.0885109901428223,
        7.821597099304199,
        5.767825126647949
      ],
      "min": [
        -3.0885109901428223,
        -9.609396934509277,
        2.6171679496765137
      ],
      "type": "VEC3"
    },
    {
      "bufferView": 2,
      "byteOffset": 266592,
      "componentType": 5126,
      "count": 340,
      "max": [
        0.9996036291122437,
        0.9993069767951965,
        0.9169660210609436
      ],
      "min": [
        -0.9996036291122437,
        -0.9993069767951965,
        -0.9169660210609436
      ],
      "type": "VEC3"
    },
    {
      "bufferView": 1,
      "byteOffset": 87504,
      "componentType": 5126,
      "count": 340,
      "max": [
        0.9970660209655762,
        0.9916890263557434
      ],
      "min": [
        0.005332999862730503,
        0.00672700023278594
      ],
      "type": "VEC2"
    },
    {
      "bufferView": 0,
      "byteOffset": 132180,
      "componentType": 5125,
      "count": 1266,
      "type": "SCALAR"
    },
    {
      "bufferView": 2,
      "byteOffset": 270672,
      "componentType": 5126,
      "count": 3694,
      "max": [
        3.258296012878418,
        -0.040036000311374664,
        6.12319803237915
      ],
      "min": [
        -3.258296012878418,
        -5.7685980796813965,
        1.3137849569320679
      ],
      "type": "VEC3"
    },
    {
      "bufferView": 2,
      "byteOffset": 315000,
      "componentType": 5126,
      "count": 3694,
      "max": [
        1.0,
        1.0,
        1.0
      ],
      "min": [
        -1.0,
        -0.9999997615814209,
        -0.9999639987945557
      ],
      "type": "VEC3"
    },
    {
      "bufferView": 3,
      "byteOffset": 175008,
      "componentType": 5126,
      "count": 3694,
      "max": [
        1.0,
        1.0,
        0.9999882578849792,
        1.0
      ],
      "min": [
        -1.0,
        -1.0,
        -0.9995777010917664,
        -1.0
      ],
      "type": "VEC4"
    },
    {
      "bufferView": 1,
      "byteOffset": 90224,
      "componentType": 5126,
      "count": 3694,
      "max": [
        0.9954950213432312,
        0.9956949949264526
      ],
      "min": [
        0.005541999824345112,
        0.004265999887138605
      ],
      "type": "VEC2"
    },
    {
      "bufferView": 0,
      "byteOffset": 137244,
      "componentType": 5125,
      "count": 11115,
      "type": "SCALAR"
    }
  ],
  "asset": {
    "extras": {
      "author": "vasyl.yarmola (https://sketchfab.com/vasyl.yarmola)",
      "license": "CC-BY-4.0 (http://creativecommons.org/licenses/by/4.0/)",
      "source": "https://sketchfab.com/3d-models/vw-amarok-dirty-2744d7c042244a539029e259df368b2e",
      "title": "VW Amarok Dirty"
    },
    "generator": "Sketchfab-12.66.0",
    "version": "2.0"
  },
  "bufferViews": [
    {
      "buffer": 0,
      "byteLength": 181704,
      "name": "floatBufferViews",
      "target": 34963
    },
    {
      "buffer": 0,
      "byteLength": 119776,
      "byteOffset": 181704,
      "byteStride": 8,
      "name": "floatBufferViews",
      "target": 34962
    },
    {
      "buffer": 0,
      "byteLength": 359328,
      "byteOffset": 301480,
      "byteStride": 12,
      "name": "floatBufferViews",
      "target": 34962
    },
    {
      "buffer": 0,
      "byteLength": 234112,
      "byteOffset": 660808,
      "byteStride": 16,
      "name": "floatBufferViews",
      "target": 34962
    }
  ],
  "buffers": [
    {
      "byteLength": 894920,
      "uri": "scene.bin"
    }
  ],
  "extensionsRequired": [
    "KHR_materials_pbrSpecularGlossiness"
  ],
  "extensionsUsed": [
    "KHR_materials_pbrSpecularGlossiness"
  ],
  "images": [
    {
      "uri": "textures/blinn1SG_diffuse.png"
    },
    {
      "uri": "textures/blinn1SG_specularGlossiness.png"
    },
    {
      "uri": "textures/blinn1SG_normal.png"
    },
    {
      "uri": "textures/blinn2SG_diffuse.png"
    },
    {
      "uri": "textures/blinn2SG_specularGlossiness.png"
    },
    {
      "uri": "textures/blinn3SG_diffuse.png"
    },
    {
      "uri": "textures/blinn3SG_specularGlossiness.png"
    },
    {
      "uri": "textures/blinn3SG_normal.png"
    }
  ],
  "materials": [
    {
      "doubleSided": true,
      "extensions": {
        "KHR_materials_pbrSpecularGlossiness": {
          "diffuseFactor": [
            1.0,
            1.0,
            1.0,
            1.0
          ],
          "diffuseTexture": {
            "index": 0
          },
          "glossinessFactor": 1.0,
          "specularFactor": [
            1.0,
            1.0,
            1.0
          ],
          "specularGlossinessTexture": {
            "index": 1
          }
        }
      },
      "name": "blinn1SG",
      "normalTexture": {
        "index": 2
      }
    },
    {
      "alphaMode": "BLEND",
      "doubleSided": true,
      "extensions": {
        "KHR_materials_pbrSpecularGlossiness": {
          "diffuseFactor": [
            1.0,
            1.0,
            1.0,
            0.8763338414634145
          ],
          "diffuseTexture": {
            "index": 3
          },
          "glossinessFactor": 1.0,
          "specularFactor": [
            1.0,
            1.0,
            1.0
          ],
          "specularGlossinessTexture": {
            "index": 4
          }
        }
      },
      "name": "blinn2SG"
    },
    {
      "doubleSided": true,
      "extensions": {
        "KHR_materials_pbrSpecularGlossiness": {
          "diffuseFactor": [
            1.0,
            1.0,
            1.0,
            1.0
          ],
          "diffuseTexture": {
            "index": 5
          },
          "glossinessFactor": 1.0,
          "specularFactor": [
            1.0,
            1.0,
            1.0
          ],
          "specularGlossinessTexture": {
            "index": 6
          }
        }
      },
      "name": "blinn3SG",
      "normalTexture": {
        "index": 7
      }
    }
  ],
  "meshes": [
    {
      "name": "Object_0",
      "primitives": [
        {
          "attributes": {
            "NORMAL": 1,
            "POSITION": 0,
            "TANGENT": 2,
            "TEXCOORD_0": 3
          },
          "indices": 4,
          "material": 0,
          "mode": 4
        }
      ]
    },
    {
      "name": "Object_1",
      "primitives": [
        {
          "attributes": {
            "NORMAL": 6,
            "POSITION": 5,
            "TEXCOORD_0": 7
          },
          "indices": 8,
          "material": 1,
          "mode": 4
        }
      ]
    },
    {
      "name": "Object_2",
      "primitives": [
        {
          "attributes": {
            "NORMAL": 10,
            "POSITION": 9,
            "TANGENT": 11,
            "TEXCOORD_0": 12
          },
          "indices": 13,
          "material": 2,
          "mode": 4
        }
      ]
    }
  ],
  "nodes": [
    {
      "children": [
        1
      ],
      "matrix": [
        1.0,
        0.0,
        0.0,
        0.0,
        0.0,
        2.220446049250313e-16,
        -1.0,
        0.0,
        0.0,
        1.0,
        2.220446049250313e-16,
        0.0,
        0.0,
        0.0,
        0.0,
        1.0
      ],
      "name": "Sketchfab_model"
    },
    {
      "children": [
        2,
        3,
        4
      ],
      "name": "Amarok_dirt.obj.cleaner.materialmerger.gles"
    },
    {
      "mesh": 0,
      "name": "Object_2"
    },
    {
      "mesh": 1,
      "name": "Object_3"
    },
    {
      "mesh": 2,
      "name": "Object_4"
    }
  ],
  "samplers": [
    {
      "magFilter": 9729,
      "minFilter": 9987,
      "wrapS": 10497,
      "wrapT": 10497
    }
  ],
  "scene": 0,
  "scenes": [
    {
      "name": "Sketchfab_Scene",
      "nodes": [
        0
      ]
    }
  ],
  "textures": [
    {
      "sampler": 0,
      "source": 0
    },
    {
      "sampler": 0,
      "source": 1
    },
    {
      "sampler": 0,
      "source": 2
    },
    {
      "sampler": 0,
      "source": 3
    },
    {
      "sampler": 0,
      "source": 4
    },
    {
      "sampler": 0,
      "source": 5
    },
    {
      "sampler": 0,
      "source": 6
    },
    {
      "sampler": 0,
      "source": 7
    }
  ]
}
