{
  "accessors": [
    {
      "bufferView": 2,
      "componentType": 5126,
      "count": 425,
      "max": [
        3.549999952316284,
        2.265000104904175,
        12.104281425476074
      ],
      "min": [
        -3.549999952316284,
        -2.265000104904175,
        -6.199997901916504
      ],
      "type": "VEC3"
    },
    {
      "bufferView": 2,
      "byteOffset": 5100,
      "componentType": 5126,
      "count": 425,
      "max": [
        1.0,
        1.0,
        1.0
      ],
      "min": [
        -1.0,
        -1.0,
        -1.0
      ],
      "type": "VEC3"
    },
    {
      "bufferView": 3,
      "componentType": 5126,
      "count": 425,
      "max": [
        1.0,
        1.0,
        0.9956867098808289,
        1.0
      ],
      "min": [
        -1.0,
        -1.0,
        -0.9985010027885437,
        1.0
      ],
      "type": "VEC4"
    },
    {
      "bufferView": 1,
      "componentType": 5126,
      "count": 425,
      "max": [
        0.9970700144767761,
        0.7065119743347168
      ],
      "min": [
        0.0029299999587237835,
        0.0029299999587237835
      ],
      "type": "VEC2"
    },
    {
      "bufferView": 0,
      "componentType": 5125,
      "count": 1548,
      "type": "SCALAR"
    }
  ],
  "asset": {
    "extras": {
      "author": "clon6767 (https://sketchfab.com/clon6767)",
      "license": "CC-BY-4.0 (http://creativecommons.org/licenses/by/4.0/)",
      "source": "https://sketchfab.com/3d-models/air-pump-029341af209043b9bffd1d20b11dc808",
      "title": "Air Pump"
    },
    "generator": "Sketchfab-14.41.0",
    "version": "2.0"
  },
  "bufferViews": [
    {
      "buffer": 0,
      "byteLength": 6192,
      "name": "floatBufferViews",
      "target": 34963
    },
    {
      "buffer": 0,
      "byteLength": 3400,
      "byteOffset": 6192,
      "byteStride": 8,
      "name": "floatBufferViews",
      "target": 34962
    },
    {
      "buffer": 0,
      "byteLength": 10200,
      "byteOffset": 9592,
      "byteStride": 12,
      "name": "floatBufferViews",
      "target": 34962
    },
    {
      "buffer": 0,
      "byteLength": 6800,
      "byteOffset": 19792,
      "byteStride": 16,
      "name": "floatBufferViews",
      "target": 34962
    }
  ],
  "buffers": [
    {
      "byteLength": 26592,
      "uri": "scene.bin"
    }
  ],
  "images": [
    {
      "uri": "textures/set1_baseColor.jpeg"
    },
    {
      "uri": "textures/set1_metallicRoughness.png"
    },
    {
      "uri": "textures/set1_normal.png"
    }
  ],
  "materials": [
    {
      "doubleSided": true,
      "name": "set1",
      "normalTexture": {
        "index": 2
      },
      "pbrMetallicRoughness": {
        "baseColorTexture": {
          "index": 0
        },
        "metallicRoughnessTexture": {
          "index": 1
        }
      }
    }
  ],
  "meshes": [
    {
      "name": "Object_0",
      "primitives": [
        {
          "attributes": {
            "NORMAL": 1,
            "POSITION": 0,
            "TANGENT": 2,
            "TEXCOORD_0": 3
          },
          "indices": 4,
          "material": 0,
          "mode": 4
        }
      ]
    }
  ],
  "nodes": [
    {
      "children": [
        1
      ],
      "matrix": [
        1.0,
        0.0,
        0.0,
        0.0,
        0.0,
        2.220446049250313e-16,
        -1.0,
        0.0,
        0.0,
        1.0,
        2.220446049250313e-16,
        0.0,
        0.0,
        0.0,
        0.0,
        1.0
      ],
      "name": "Sketchfab_model"
    },
    {
      "children": [
        2
      ],
      "name": "air_pump..obj.cleaner.materialmerger.gles"
    },
    {
      "mesh": 0,
      "name": "Object_2"
    }
  ],
  "samplers": [
    {
      "magFilter": 9729,
      "minFilter": 9987,
      "wrapS": 10497,
      "wrapT": 10497
    }
  ],
  "scene": 0,
  "scenes": [
    {
      "name": "Sketchfab_Scene",
      "nodes": [
        0
      ]
    }
  ],
  "textures": [
    {
      "sampler": 0,
      "source": 0
    },
    {
      "sampler": 0,
      "source": 1
    },
    {
      "sampler": 0,
      "source": 2
    }
  ]
}
